<svg width="151" height="150" viewBox="0 0 151 150" fill="none" xmlns="http://www.w3.org/2000/svg">
<rect x="3" y="2.5" width="145" height="145" rx="72.5" stroke="white" stroke-width="5"/>
<path d="M66.125 75L72.375 81.25L84.875 68.75M47.375 75C47.375 78.6934 48.1025 82.3507 49.5159 85.763C50.9293 89.1753 53.001 92.2757 55.6126 94.8874C58.2243 97.499 61.3247 99.5707 64.737 100.984C68.1493 102.398 71.8066 103.125 75.5 103.125C79.1934 103.125 82.8507 102.398 86.263 100.984C89.6753 99.5707 92.7757 97.499 95.3874 94.8874C97.999 92.2757 100.071 89.1753 101.484 85.763C102.898 82.3507 103.625 78.6934 103.625 75C103.625 71.3066 102.898 67.6493 101.484 64.237C100.071 60.8247 97.999 57.7243 95.3874 55.1126C92.7757 52.501 89.6753 50.4293 86.263 49.0159C82.8507 47.6025 79.1934 46.875 75.5 46.875C71.8066 46.875 68.1493 47.6025 64.737 49.0159C61.3247 50.4293 58.2243 52.501 55.6126 55.1126C53.001 57.7243 50.9293 60.8247 49.5159 64.237C48.1025 67.6493 47.375 71.3066 47.375 75Z" stroke="white" stroke-width="5" stroke-linecap="round" stroke-linejoin="round"/>
</svg>
