<svg width="40" height="40" viewBox="0 0 40 40" fill="none" xmlns="http://www.w3.org/2000/svg">
<rect width="40" height="40" rx="20" fill="#00A5DF"/>
<path d="M22 20C22 19.4696 21.7893 18.9609 21.4142 18.5858C21.0391 18.2107 20.5304 18 20 18M22 20C22 20.5304 21.7893 21.0391 21.4142 21.4142C21.0391 21.7893 20.5304 22 20 22M22 20C22 16.686 19.538 14 16.5 14C13.462 14 11 16.686 11 20M20 18C19.4696 18 18.9609 18.2107 18.5858 18.5858C18.2107 18.9609 18 19.4696 18 20M20 18C16.686 18 14 20.462 14 23.5C14 26.538 16.686 29 20 29M18 20C18 20.5304 18.2107 21.0391 18.5858 21.4142C18.9609 21.7893 19.4696 22 20 22M18 20C18 23.314 20.462 26 23.5 26C26.538 26 29 23.314 29 20M20 22C23.314 22 26 19.538 26 16.5C26 13.462 23.314 11 20 11" stroke="white" stroke-width="2" stroke-linecap="round" stroke-linejoin="round"/>
</svg>
