<svg width="81" height="80" viewBox="0 0 81 80" fill="none" xmlns="http://www.w3.org/2000/svg">
<rect x="0.5" width="80" height="80" rx="40" fill="#00A5DF"/>
<path d="M53.625 36.25L40.5 23.125L23.625 40H27.375V53.125C27.375 54.1196 27.7701 55.0734 28.4733 55.7766C29.1766 56.4799 30.1304 56.875 31.125 56.875H42.375M34.875 56.875V45.625C34.875 44.6304 35.2701 43.6766 35.9734 42.9734C36.6766 42.2701 37.6304 41.875 38.625 41.875H42.375C43.1006 41.875 43.7775 42.0813 44.3512 42.4375M57.375 45.625H52.6875C51.9416 45.625 51.2262 45.9213 50.6988 46.4488C50.1713 46.9762 49.875 47.6916 49.875 48.4375C49.875 49.1834 50.1713 49.8988 50.6988 50.4262C51.2262 50.9537 51.9416 51.25 52.6875 51.25H54.5625C55.3084 51.25 56.0238 51.5463 56.5512 52.0738C57.0787 52.6012 57.375 53.3166 57.375 54.0625C57.375 54.8084 57.0787 55.5238 56.5512 56.0512C56.0238 56.5787 55.3084 56.875 54.5625 56.875H49.875M53.625 56.875V58.75M53.625 43.75V45.625" stroke="white" stroke-width="3.5" stroke-linecap="round" stroke-linejoin="round"/>
</svg>
