<svg width="81" height="80" viewBox="0 0 81 80" fill="none" xmlns="http://www.w3.org/2000/svg">
<rect x="0.5" width="80" height="80" rx="40" fill="#00A5DF"/>
<path d="M34.875 56.875V45.625C34.875 44.6304 35.2701 43.6766 35.9734 42.9734C36.6766 42.2701 37.6304 41.875 38.625 41.875H42.375C43.5844 41.875 44.6588 42.4469 45.345 43.3375M55.5 38.125L40.5 23.125L23.625 40H27.375V53.125C27.375 54.1196 27.7701 55.0734 28.4733 55.7766C29.1766 56.4799 30.1304 56.875 31.125 56.875H38.625M52.5375 46.7687C52.9032 46.4031 53.3372 46.113 53.815 45.9152C54.2927 45.7173 54.8048 45.6154 55.3219 45.6154C55.839 45.6154 56.351 45.7173 56.8288 45.9152C57.3065 46.113 57.7406 46.4031 58.1063 46.7687C58.4719 47.1344 58.7619 47.5685 58.9598 48.0462C59.1577 48.524 59.2596 49.036 59.2596 49.5531C59.2596 50.0702 59.1577 50.5823 58.9598 51.06C58.7619 51.5378 58.4719 51.9718 58.1063 52.3375L51.75 58.75H46.125V53.125L52.5375 46.7687Z" stroke="white" stroke-width="3.5" stroke-linecap="round" stroke-linejoin="round"/>
</svg>
