<svg width="75" height="75" viewBox="0 0 75 75" fill="none" xmlns="http://www.w3.org/2000/svg">
<rect width="75" height="75" rx="37.5" fill="#EFF2F9"/>
<path d="M49.1293 46.5747L40.4067 55.2972C39.6358 56.0674 38.5907 56.5 37.501 56.5C36.4112 56.5 35.3661 56.0674 34.5952 55.2972L25.8706 46.5747C23.5706 44.2747 22.0044 41.3443 21.3699 38.1541C20.7354 34.9639 21.0611 31.6572 22.3059 28.6522C23.5507 25.6471 25.6586 23.0787 28.3631 21.2716C31.0676 19.4645 34.2473 18.5 37.4999 18.5C40.7526 18.5 43.9322 19.4645 46.6367 21.2716C49.3412 23.0787 51.4491 25.6471 52.6939 28.6522C53.9387 31.6572 54.2644 34.9639 53.6299 38.1541C52.9954 41.3443 51.4292 44.2747 49.1293 46.5747Z" fill="#00A5DF" stroke="#00A5DF" stroke-width="3" stroke-linecap="round" stroke-linejoin="round"/>
<path d="M25 48.6901V37.2901C24.9997 36.6471 25.1463 36.0126 25.4287 35.4349C25.7111 34.8573 26.1217 34.3518 26.6293 33.9571L35.0747 27.3895C35.8158 26.813 36.7278 26.5 37.6667 26.5C38.6055 26.5 39.5176 26.813 40.2586 27.3895L48.7025 33.9571C49.7317 34.7567 50.3333 35.987 50.3333 37.2901V48.6901" stroke="#EFF2F9" stroke-width="3" stroke-linecap="round" stroke-linejoin="round"/>
<path d="M40.5238 44.9644C40.5302 44.9541 40.5305 44.9537 40.5242 44.9619C40.5033 44.9897 40.4744 45.0242 40.4372 45.0641C40.3182 45.192 40.1618 45.3251 39.9645 45.4531C39.3608 45.8447 38.5442 46.0866 37.4634 46.0866C36.3825 46.0866 35.5659 45.8447 34.9622 45.4531C34.7649 45.3251 34.6085 45.192 34.4895 45.0641C34.4524 45.0242 34.4235 44.9897 34.4025 44.9619C34.3959 44.9532 34.3965 44.9541 34.4041 44.9662C34.1138 44.5018 33.5021 44.3606 33.0377 44.6509C32.5733 44.9411 32.4321 45.5528 32.7224 46.0172C32.7857 46.1186 32.8893 46.2556 33.0377 46.4151C33.2647 46.659 33.5452 46.8977 33.883 47.1168C34.8079 47.7168 35.9992 48.0697 37.4634 48.0697C38.9275 48.0697 40.1188 47.7168 41.0437 47.1168C41.3815 46.8977 41.662 46.659 41.889 46.4151C42.0374 46.2556 42.141 46.1186 42.2043 46.0172C42.4946 45.5528 42.3534 44.9411 41.889 44.6509C41.4249 44.3608 40.8135 44.5016 40.5231 44.9655L40.5238 44.9644Z" fill="#EFF2F9"/>
<path d="M34.5157 38.6111C33.775 37.1296 30.812 37.1296 30.0713 38.6111M44.8861 38.6111C44.1454 37.1296 41.1824 37.1296 40.4417 38.6111" stroke="#EFF2F9" stroke-width="2" stroke-linecap="round" stroke-linejoin="round"/>
</svg>
