<svg width="16" height="17" viewBox="0 0 16 17" fill="none" xmlns="http://www.w3.org/2000/svg">
<path d="M6.99992 13.7667V3.23333C6.99992 2.23333 6.57325 1.83333 5.51325 1.83333H2.81992C1.75992 1.83333 1.33325 2.23333 1.33325 3.23333V13.7667C1.33325 14.7667 1.75992 15.1667 2.81992 15.1667H5.51325C6.57325 15.1667 6.99992 14.7667 6.99992 13.7667Z" stroke="#00A5DF" stroke-width="2" stroke-linecap="round" stroke-linejoin="round"/>
<path d="M14.6667 6.18V3.15333C14.6667 2.21333 14.24 1.83333 13.18 1.83333H10.4867C9.42667 1.83333 9 2.21333 9 3.15333V6.17333C9 7.12 9.42667 7.49333 10.4867 7.49333H13.18C14.24 7.49999 14.6667 7.12 14.6667 6.18Z" stroke="#00A5DF" stroke-width="2" stroke-linecap="round" stroke-linejoin="round"/>
<path d="M14.6667 13.68V10.9867C14.6667 9.92667 14.24 9.5 13.18 9.5H10.4867C9.42667 9.5 9 9.92667 9 10.9867V13.68C9 14.74 9.42667 15.1667 10.4867 15.1667H13.18C14.24 15.1667 14.6667 14.74 14.6667 13.68Z" stroke="#00A5DF" stroke-width="2" stroke-linecap="round" stroke-linejoin="round"/>
</svg>
