<svg width="16" height="17" viewBox="0 0 16 17" fill="none" xmlns="http://www.w3.org/2000/svg">
<g clip-path="url(#clip0_88_1953)">
<path d="M13.8083 5.75468L9.36409 2.30121C8.97408 1.99808 8.49405 1.8335 7.99992 1.8335C7.50579 1.8335 7.02576 1.99808 6.63575 2.30121L2.19075 5.75468C1.92362 5.96223 1.7075 6.22802 1.55888 6.53176C1.41027 6.8355 1.33309 7.16915 1.33325 7.50723V13.5017C1.33325 13.9433 1.50885 14.3669 1.82141 14.6791C2.13397 14.9914 2.55789 15.1668 2.99992 15.1668H12.9999C13.4419 15.1668 13.8659 14.9914 14.1784 14.6791C14.491 14.3669 14.6666 13.9433 14.6666 13.5017V7.50723C14.6666 6.82203 14.3499 6.17513 13.8083 5.75468Z" stroke="#00A5DF" stroke-width="2" stroke-linecap="round" stroke-linejoin="round"/>
</g>
<defs>
<clipPath id="clip0_88_1953">
<rect width="16" height="16" fill="white" transform="translate(0 0.5)"/>
</clipPath>
</defs>
</svg>
