<svg width="110" height="44" viewBox="0 0 110 44" fill="none" xmlns="http://www.w3.org/2000/svg">
<path d="M30.1293 32.0747L21.4067 40.7972C20.6358 41.5674 19.5907 42 18.501 42C17.4112 42 16.3661 41.5674 15.5952 40.7972L6.87057 32.0747C4.57065 29.7747 3.00441 26.8443 2.3699 23.6541C1.7354 20.4639 2.06114 17.1572 3.30592 14.1522C4.5507 11.1471 6.65862 8.57865 9.36313 6.77159C12.0676 4.96452 15.2473 4 18.4999 4C21.7526 4 24.9322 4.96452 27.6367 6.77159C30.3412 8.57865 32.4491 11.1471 33.6939 14.1522C34.9387 17.1572 35.2644 20.4639 34.6299 23.6541C33.9954 26.8443 32.4292 29.7747 30.1293 32.0747Z" fill="white" stroke="white" stroke-width="3" stroke-linecap="round" stroke-linejoin="round"/>
<path d="M6 34.1901V22.7901C5.9997 22.1471 6.14633 21.5126 6.4287 20.9349C6.71106 20.3573 7.1217 19.8518 7.62925 19.4571L16.0747 12.8895C16.8158 12.313 17.7278 12 18.6667 12C19.6055 12 20.5176 12.313 21.2586 12.8895L29.7025 19.4571C30.7317 20.2567 31.3333 21.487 31.3333 22.7901V34.1901" stroke="#00A5DF" stroke-width="3" stroke-linecap="round" stroke-linejoin="round"/>
<path d="M21.5238 30.4644C21.5302 30.4541 21.5305 30.4537 21.5242 30.4619C21.5033 30.4897 21.4744 30.5242 21.4372 30.5641C21.3182 30.692 21.1618 30.8251 20.9645 30.9531C20.3608 31.3447 19.5442 31.5866 18.4634 31.5866C17.3825 31.5866 16.5659 31.3447 15.9622 30.9531C15.7649 30.8251 15.6085 30.692 15.4895 30.5641C15.4524 30.5242 15.4235 30.4897 15.4025 30.4619C15.3959 30.4532 15.3965 30.4541 15.4041 30.4662C15.1138 30.0018 14.5021 29.8606 14.0377 30.1509C13.5733 30.4411 13.4321 31.0528 13.7224 31.5172C13.7857 31.6186 13.8893 31.7556 14.0377 31.9151C14.2647 32.159 14.5452 32.3977 14.883 32.6168C15.8079 33.2168 16.9992 33.5697 18.4634 33.5697C19.9275 33.5697 21.1188 33.2168 22.0437 32.6168C22.3815 32.3977 22.662 32.159 22.889 31.9151C23.0374 31.7556 23.141 31.6186 23.2043 31.5172C23.4946 31.0528 23.3534 30.4411 22.889 30.1509C22.4249 29.8608 21.8135 30.0016 21.5231 30.4655L21.5238 30.4644Z" fill="#00A5DF"/>
<path d="M15.5157 24.1111C14.775 22.6296 11.812 22.6296 11.0713 24.1111M25.8861 24.1111C25.1454 22.6296 22.1824 22.6296 21.4417 24.1111" stroke="#00A5DF" stroke-width="2" stroke-linecap="round" stroke-linejoin="round"/>
<path d="M48.3716 12.2521C47.9829 12.2521 47.6382 12.1825 47.3376 12.0431C47.0442 11.8965 46.8132 11.6985 46.6446 11.4491C46.4759 11.1925 46.3916 10.8991 46.3916 10.5691C46.3916 10.2538 46.4576 9.97145 46.5896 9.72212C46.7289 9.46545 46.9416 9.24912 47.2276 9.07312C47.5209 8.89712 47.8876 8.77245 48.3276 8.69912L50.5276 8.33612V9.19412L48.5586 9.52412C48.1772 9.59012 47.8986 9.71112 47.7226 9.88712C47.5539 10.0631 47.4696 10.2795 47.4696 10.5361C47.4696 10.7781 47.5649 10.9798 47.7556 11.1411C47.9536 11.3025 48.1992 11.3831 48.4926 11.3831C48.8666 11.3831 49.1892 11.3061 49.4606 11.1521C49.7392 10.9908 49.9556 10.7745 50.1096 10.5031C50.2709 10.2318 50.3516 9.93112 50.3516 9.60112V8.09412C50.3516 7.77145 50.2306 7.51112 49.9886 7.31312C49.7539 7.10778 49.4422 7.00512 49.0536 7.00512C48.7162 7.00512 48.4156 7.09312 48.1516 7.26912C47.8949 7.43778 47.7042 7.66512 47.5796 7.95112L46.6886 7.48912C46.7986 7.21778 46.9746 6.97578 47.2166 6.76312C47.4586 6.54312 47.7409 6.37078 48.0636 6.24612C48.3862 6.12145 48.7236 6.05912 49.0756 6.05912C49.5302 6.05912 49.9299 6.14712 50.2746 6.32312C50.6192 6.49178 50.8869 6.73012 51.0776 7.03812C51.2756 7.33878 51.3746 7.69078 51.3746 8.09412V12.1201H50.3736V10.9981L50.5606 11.0641C50.4359 11.2988 50.2672 11.5041 50.0546 11.6801C49.8419 11.8561 49.5926 11.9955 49.3066 12.0981C49.0206 12.2008 48.7089 12.2521 48.3716 12.2521ZM52.4107 14.3201V6.19112H53.4117V7.46712L53.2797 7.21412C53.4997 6.86212 53.8004 6.58345 54.1817 6.37812C54.563 6.16545 54.9994 6.05912 55.4907 6.05912C56.048 6.05912 56.5467 6.19478 56.9867 6.46612C57.434 6.73745 57.786 7.10778 58.0427 7.57712C58.2994 8.03912 58.4277 8.56712 58.4277 9.16112C58.4277 9.74045 58.2994 10.2648 58.0427 10.7341C57.786 11.2035 57.434 11.5738 56.9867 11.8451C56.5467 12.1165 56.0444 12.2521 55.4797 12.2521C55.003 12.2521 54.5667 12.1458 54.1707 11.9331C53.782 11.7205 53.4814 11.4198 53.2687 11.0311L53.4337 10.8551V14.3201H52.4107ZM55.4027 11.2621C55.7767 11.2621 56.1104 11.1705 56.4037 10.9871C56.697 10.8038 56.9244 10.5545 57.0857 10.2391C57.2544 9.91645 57.3387 9.55712 57.3387 9.16112C57.3387 8.75045 57.2544 8.39112 57.0857 8.08312C56.9244 7.76778 56.697 7.51845 56.4037 7.33512C56.1104 7.14445 55.7767 7.04912 55.4027 7.04912C55.0287 7.04912 54.6914 7.14078 54.3907 7.32412C54.0974 7.50745 53.8627 7.76045 53.6867 8.08312C53.518 8.39845 53.4337 8.75778 53.4337 9.16112C53.4337 9.55712 53.518 9.91645 53.6867 10.2391C53.8627 10.5545 54.0974 10.8038 54.3907 10.9871C54.6914 11.1705 55.0287 11.2621 55.4027 11.2621ZM61.3421 12.2521C60.7481 12.2521 60.2311 12.1055 59.7911 11.8121C59.3511 11.5188 59.0394 11.1228 58.8561 10.6241L59.6701 10.2281C59.8388 10.5801 60.0698 10.8588 60.3631 11.0641C60.6564 11.2695 60.9828 11.3721 61.3421 11.3721C61.6648 11.3721 61.9324 11.2951 62.1451 11.1411C62.3578 10.9871 62.4641 10.7855 62.4641 10.5361C62.4641 10.3601 62.4128 10.2208 62.3101 10.1181C62.2148 10.0081 62.0974 9.92378 61.9581 9.86512C61.8188 9.79912 61.6904 9.75145 61.5731 9.72212L60.6821 9.46912C60.1468 9.31512 59.7544 9.09512 59.5051 8.80912C59.2631 8.52312 59.1421 8.18945 59.1421 7.80812C59.1421 7.45612 59.2301 7.15178 59.4061 6.89512C59.5894 6.63112 59.8351 6.42578 60.1431 6.27912C60.4584 6.13245 60.8104 6.05912 61.1991 6.05912C61.7198 6.05912 62.1854 6.19112 62.5961 6.45512C63.0141 6.71912 63.3111 7.08945 63.4871 7.56612L62.6511 7.95112C62.5191 7.64312 62.3211 7.40112 62.0571 7.22512C61.7931 7.04178 61.4961 6.95012 61.1661 6.95012C60.8654 6.95012 60.6271 7.02712 60.4511 7.18112C60.2751 7.32778 60.1871 7.51478 60.1871 7.74212C60.1871 7.91078 60.2311 8.05012 60.3191 8.16012C60.4071 8.26278 60.5134 8.34345 60.6381 8.40212C60.7628 8.45345 60.8838 8.49745 61.0011 8.53412L61.9691 8.82012C62.4531 8.95945 62.8271 9.17578 63.0911 9.46912C63.3624 9.76245 63.4981 10.1145 63.4981 10.5251C63.4981 10.8551 63.4064 11.1521 63.2231 11.4161C63.0398 11.6801 62.7868 11.8855 62.4641 12.0321C62.1414 12.1788 61.7674 12.2521 61.3421 12.2521ZM64.2873 12.1201V6.19112H65.3103V12.1201H64.2873ZM64.2873 5.24512V3.92512H65.3103V5.24512H64.2873ZM66.6666 14.5401C66.5346 14.5401 66.4026 14.5291 66.2706 14.5071C66.1386 14.4925 66.0139 14.4595 65.8966 14.4081V13.4951C65.9773 13.5025 66.0763 13.5171 66.1936 13.5391C66.3183 13.5611 66.4393 13.5721 66.5566 13.5721C66.9013 13.5721 67.1616 13.4951 67.3376 13.3411C67.5209 13.1871 67.6933 12.9268 67.8546 12.5601L68.2286 11.6691L68.2066 12.5601L65.6766 6.19112H66.7876L68.7566 11.2511H68.4266L70.3846 6.19112H71.5176L68.8446 12.8241C68.7199 13.1395 68.5586 13.4291 68.3606 13.6931C68.1699 13.9571 67.9353 14.1625 67.6566 14.3091C67.3779 14.4631 67.0479 14.5401 66.6666 14.5401ZM74.5863 12.2521C74.0143 12.2521 73.4973 12.1201 73.0353 11.8561C72.5733 11.5848 72.2066 11.2145 71.9353 10.7451C71.6639 10.2758 71.5283 9.74412 71.5283 9.15012C71.5283 8.55612 71.6603 8.02812 71.9243 7.56612C72.1956 7.10412 72.5623 6.73745 73.0243 6.46612C73.4863 6.19478 74.0069 6.05912 74.5863 6.05912C75.1583 6.05912 75.6753 6.19478 76.1373 6.46612C76.5993 6.73012 76.9623 7.09312 77.2263 7.55512C77.4976 8.01712 77.6333 8.54878 77.6333 9.15012C77.6333 9.75145 77.4939 10.2868 77.2153 10.7561C76.9366 11.2181 76.5663 11.5848 76.1043 11.8561C75.6496 12.1201 75.1436 12.2521 74.5863 12.2521ZM74.5863 11.2621C74.9529 11.2621 75.2829 11.1705 75.5763 10.9871C75.8769 10.8038 76.1116 10.5508 76.2803 10.2281C76.4563 9.90545 76.5443 9.54612 76.5443 9.15012C76.5443 8.74678 76.4563 8.39112 76.2803 8.08312C76.1116 7.76778 75.8769 7.51845 75.5763 7.33512C75.2829 7.14445 74.9529 7.04912 74.5863 7.04912C74.2123 7.04912 73.8749 7.14445 73.5743 7.33512C73.2809 7.51845 73.0463 7.76778 72.8703 8.08312C72.6943 8.39112 72.6063 8.74678 72.6063 9.15012C72.6063 9.54612 72.6943 9.90545 72.8703 10.2281C73.0463 10.5508 73.2809 10.8038 73.5743 10.9871C73.8749 11.1705 74.2123 11.2621 74.5863 11.2621ZM78.4175 12.1201V6.19112H79.4185V7.34612L79.2535 7.24712C79.4002 6.87312 79.6349 6.58345 79.9575 6.37812C80.2875 6.16545 80.6725 6.05912 81.1125 6.05912C81.5379 6.05912 81.9155 6.15445 82.2455 6.34512C82.5829 6.53578 82.8469 6.79978 83.0375 7.13712C83.2355 7.47445 83.3345 7.85578 83.3345 8.28112V12.1201H82.3005V8.61112C82.3005 8.28112 82.2419 8.00245 82.1245 7.77512C82.0072 7.54778 81.8385 7.37178 81.6185 7.24712C81.4059 7.11512 81.1602 7.04912 80.8815 7.04912C80.6029 7.04912 80.3535 7.11512 80.1335 7.24712C79.9209 7.37178 79.7522 7.55145 79.6275 7.78612C79.5029 8.01345 79.4405 8.28845 79.4405 8.61112V12.1201H78.4175Z" fill="white"/>
<path d="M45.794 37V16.14H50.134V26.584L48.93 26.164L57.274 16.14H62.706L54.446 26.108L54.698 23.028L62.874 37H57.806L52.71 28.18L50.134 31.288V37H45.794ZM68.3273 37.336C67.2259 37.336 66.2739 37.1587 65.4713 36.804C64.6686 36.4493 64.0526 35.9453 63.6233 35.292C63.1939 34.62 62.9793 33.8267 62.9793 32.912C62.9793 32.0533 63.1753 31.2973 63.5673 30.644C63.9593 29.972 64.5566 29.412 65.3593 28.964C66.1806 28.516 67.1979 28.1987 68.4113 28.012L73.0873 27.256V30.336L69.1673 31.036C68.5699 31.148 68.1126 31.344 67.7953 31.624C67.4779 31.8853 67.3193 32.268 67.3193 32.772C67.3193 33.2387 67.4966 33.6027 67.8513 33.864C68.2059 34.1253 68.6446 34.256 69.1673 34.256C69.8579 34.256 70.4646 34.1067 70.9873 33.808C71.5099 33.5093 71.9113 33.108 72.1913 32.604C72.4899 32.0813 72.6393 31.512 72.6393 30.896V26.92C72.6393 26.3413 72.4059 25.856 71.9393 25.464C71.4913 25.072 70.8753 24.876 70.0913 24.876C69.3446 24.876 68.6819 25.0813 68.1033 25.492C67.5433 25.9027 67.1326 26.444 66.8713 27.116L63.5113 25.52C63.8099 24.6613 64.2859 23.924 64.9393 23.308C65.5926 22.692 66.3766 22.216 67.2913 21.88C68.2059 21.544 69.2046 21.376 70.2873 21.376C71.5753 21.376 72.7139 21.6093 73.7033 22.076C74.6926 22.5427 75.4579 23.196 75.9993 24.036C76.5593 24.8573 76.8393 25.8187 76.8393 26.92V37H72.9193V34.536L73.8713 34.368C73.4233 35.04 72.9286 35.6 72.3873 36.048C71.8459 36.4773 71.2393 36.7947 70.5673 37C69.8953 37.224 69.1486 37.336 68.3273 37.336ZM85.0715 37.336C83.3915 37.336 81.9261 36.944 80.6755 36.16C79.4435 35.3573 78.6035 34.284 78.1555 32.94L81.2355 31.484C81.6275 32.3053 82.1595 32.9493 82.8315 33.416C83.5035 33.8827 84.2501 34.116 85.0715 34.116C85.6688 34.116 86.1261 33.9947 86.4435 33.752C86.7608 33.5093 86.9195 33.1733 86.9195 32.744C86.9195 32.52 86.8635 32.3333 86.7515 32.184C86.6395 32.016 86.4715 31.8667 86.2475 31.736C86.0235 31.6053 85.7435 31.4933 85.4075 31.4L82.8035 30.672C81.5528 30.3173 80.5915 29.748 79.9195 28.964C79.2475 28.1613 78.9115 27.2187 78.9115 26.136C78.9115 25.184 79.1541 24.3533 79.6395 23.644C80.1248 22.9347 80.8061 22.384 81.6835 21.992C82.5608 21.5813 83.5688 21.376 84.7075 21.376C86.2008 21.376 87.5075 21.7307 88.6275 22.44C89.7661 23.1307 90.5688 24.1107 91.0355 25.38L87.9275 26.836C87.7035 26.2013 87.2928 25.6973 86.6955 25.324C86.1168 24.932 85.4541 24.736 84.7075 24.736C84.1661 24.736 83.7368 24.848 83.4195 25.072C83.1208 25.296 82.9715 25.604 82.9715 25.996C82.9715 26.2013 83.0275 26.388 83.1395 26.556C83.2515 26.724 83.4288 26.8733 83.6715 27.004C83.9328 27.1347 84.2501 27.256 84.6235 27.368L87.0595 28.096C88.3288 28.4693 89.2995 29.0387 89.9715 29.804C90.6435 30.5507 90.9795 31.4747 90.9795 32.576C90.9795 33.528 90.7275 34.3587 90.2235 35.068C89.7381 35.7773 89.0568 36.3373 88.1795 36.748C87.3021 37.14 86.2661 37.336 85.0715 37.336ZM85.0435 43.72C84.5581 43.72 83.9981 43.6453 83.3635 43.496C82.7475 43.3467 82.2155 43.1227 81.7675 42.824L82.6355 40.5C82.9155 40.668 83.2141 40.7987 83.5315 40.892C83.8675 40.9853 84.1848 41.032 84.4835 41.032C84.8941 41.032 85.2021 40.948 85.4075 40.78C85.6315 40.6307 85.7435 40.416 85.7435 40.136C85.7435 39.8 85.5195 39.5293 85.0715 39.324C84.6235 39.1187 83.9795 38.9787 83.1395 38.904L83.6995 36.72H86.0795L85.8555 37.784C86.8448 37.8773 87.6288 38.1667 88.2075 38.652C88.7861 39.1373 89.0755 39.744 89.0755 40.472C89.0755 41.4613 88.7115 42.2453 87.9835 42.824C87.2555 43.4213 86.2755 43.72 85.0435 43.72ZM92.6496 37V21.712H96.8496V37H92.6496ZM92.6496 20.34V16.14H96.8496V20.34H92.6496ZM100.931 37V25.352H98.3551V21.712H100.931V21.488C100.931 20.2747 101.164 19.248 101.631 18.408C102.116 17.568 102.807 16.924 103.703 16.476C104.599 16.028 105.682 15.804 106.951 15.804C107.194 15.804 107.455 15.8227 107.735 15.86C108.015 15.8787 108.248 15.9067 108.435 15.944V19.528C108.248 19.4907 108.08 19.472 107.931 19.472C107.8 19.4533 107.66 19.444 107.511 19.444C106.727 19.444 106.13 19.6213 105.719 19.976C105.327 20.312 105.131 20.816 105.131 21.488V21.712H108.407V25.352H105.131V37H100.931Z" fill="white"/>
<path d="M71.8416 19.6349C71.4127 19.3013 70.8849 19.1201 70.3416 19.1201C69.7982 19.1201 69.2704 19.3013 68.8416 19.6349" stroke="white" stroke-width="1.25" stroke-linecap="round" stroke-linejoin="round"/>
</svg>
