<svg width="38" height="44" viewBox="0 0 38 44" fill="none" xmlns="http://www.w3.org/2000/svg">
<path d="M30.1293 32.5747L21.4067 41.2972C20.6358 42.0674 19.5907 42.5 18.501 42.5C17.4112 42.5 16.3661 42.0674 15.5952 41.2972L6.87057 32.5747C4.57065 30.2747 3.00441 27.3443 2.3699 24.1541C1.7354 20.9639 2.06114 17.6572 3.30592 14.6522C4.5507 11.6471 6.65862 9.07865 9.36313 7.27159C12.0676 5.46452 15.2473 4.5 18.4999 4.5C21.7526 4.5 24.9322 5.46452 27.6367 7.27159C30.3412 9.07865 32.4491 11.6471 33.6939 14.6522C34.9387 17.6572 35.2644 20.9639 34.6299 24.1541C33.9954 27.3443 32.4292 30.2747 30.1293 32.5747Z" fill="#00A5DF" stroke="#00A5DF" stroke-width="3" stroke-linecap="round" stroke-linejoin="round"/>
<path d="M6 34.6901V23.2901C5.9997 22.6471 6.14633 22.0126 6.4287 21.4349C6.71106 20.8573 7.1217 20.3518 7.62925 19.9571L16.0747 13.3895C16.8158 12.813 17.7278 12.5 18.6667 12.5C19.6055 12.5 20.5176 12.813 21.2586 13.3895L29.7025 19.9571C30.7317 20.7567 31.3333 21.987 31.3333 23.2901V34.6901" stroke="#181C23" stroke-width="3" stroke-linecap="round" stroke-linejoin="round"/>
<path d="M21.5238 30.9644C21.5302 30.9541 21.5305 30.9537 21.5242 30.9619C21.5033 30.9897 21.4744 31.0242 21.4372 31.0641C21.3182 31.192 21.1618 31.3251 20.9645 31.4531C20.3608 31.8447 19.5442 32.0866 18.4634 32.0866C17.3825 32.0866 16.5659 31.8447 15.9622 31.4531C15.7649 31.3251 15.6085 31.192 15.4895 31.0641C15.4524 31.0242 15.4235 30.9897 15.4025 30.9619C15.3959 30.9532 15.3965 30.9541 15.4041 30.9662C15.1138 30.5018 14.5021 30.3606 14.0377 30.6509C13.5733 30.9411 13.4321 31.5528 13.7224 32.0172C13.7857 32.1186 13.8893 32.2556 14.0377 32.4151C14.2647 32.659 14.5452 32.8977 14.883 33.1168C15.8079 33.7168 16.9992 34.0697 18.4634 34.0697C19.9275 34.0697 21.1188 33.7168 22.0437 33.1168C22.3815 32.8977 22.662 32.659 22.889 32.4151C23.0374 32.2556 23.141 32.1186 23.2043 32.0172C23.4946 31.5528 23.3534 30.9411 22.889 30.6509C22.4249 30.3608 21.8135 30.5016 21.5231 30.9655L21.5238 30.9644Z" fill="#181C23"/>
<path d="M15.5157 24.6111C14.775 23.1296 11.812 23.1296 11.0713 24.6111M25.8861 24.6111C25.1454 23.1296 22.1824 23.1296 21.4417 24.6111" stroke="#181C23" stroke-width="2" stroke-linecap="round" stroke-linejoin="round"/>
</svg>
